<svg width="93" height="107" viewBox="0 0 93 107" fill="none" xmlns="http://www.w3.org/2000/svg">
<path d="M27.125 34.875C27.125 35.9027 26.7167 36.8883 25.99 37.615C25.2633 38.3417 24.2777 38.75 23.25 38.75C22.2223 38.75 21.2367 38.3417 20.51 37.615C19.7833 36.8883 19.375 35.9027 19.375 34.875C19.375 33.8473 19.7833 32.8617 20.51 32.135C21.2367 31.4083 22.2223 31 23.25 31C24.2777 31 25.2633 31.4083 25.99 32.135C26.7167 32.8617 27.125 33.8473 27.125 34.875ZM27.125 46.5C27.125 47.5277 26.7167 48.5133 25.99 49.24C25.2633 49.9667 24.2777 50.375 23.25 50.375C22.2223 50.375 21.2367 49.9667 20.51 49.24C19.7833 48.5133 19.375 47.5277 19.375 46.5C19.375 45.4723 19.7833 44.4867 20.51 43.76C21.2367 43.0333 22.2223 42.625 23.25 42.625C24.2777 42.625 25.2633 43.0333 25.99 43.76C26.7167 44.4867 27.125 45.4723 27.125 46.5ZM38.75 46.5C38.75 47.5277 38.3417 48.5133 37.615 49.24C36.8883 49.9667 35.9027 50.375 34.875 50.375C33.8473 50.375 32.8617 49.9667 32.135 49.24C31.4083 48.5133 31 47.5277 31 46.5C31 45.4723 31.4083 44.4867 32.135 43.76C32.8617 43.0333 33.8473 42.625 34.875 42.625C35.9027 42.625 36.8883 43.0333 37.615 43.76C38.3417 44.4867 38.75 45.4723 38.75 46.5ZM38.75 34.875C38.75 35.9027 38.3417 36.8883 37.615 37.615C36.8883 38.3417 35.9027 38.75 34.875 38.75C33.8473 38.75 32.8617 38.3417 32.135 37.615C31.4083 36.8883 31 35.9027 31 34.875C31 33.8473 31.4083 32.8617 32.135 32.135C32.8617 31.4083 33.8473 31 34.875 31C35.9027 31 36.8883 31.4083 37.615 32.135C38.3417 32.8617 38.75 33.8473 38.75 34.875ZM50.375 34.875C50.375 35.9027 49.9667 36.8883 49.24 37.615C48.5133 38.3417 47.5277 38.75 46.5 38.75C45.4723 38.75 44.4867 38.3417 43.76 37.615C43.0333 36.8883 42.625 35.9027 42.625 34.875C42.625 33.8473 43.0333 32.8617 43.76 32.135C44.4867 31.4083 45.4723 31 46.5 31C47.5277 31 48.5133 31.4083 49.24 32.135C49.9667 32.8617 50.375 33.8473 50.375 34.875ZM50.375 46.5C50.375 47.5277 49.9667 48.5133 49.24 49.24C48.5133 49.9667 47.5277 50.375 46.5 50.375C45.4723 50.375 44.4867 49.9667 43.76 49.24C43.0333 48.5133 42.625 47.5277 42.625 46.5C42.625 45.4723 43.0333 44.4867 43.76 43.76C44.4867 43.0333 45.4723 42.625 46.5 42.625C47.5277 42.625 48.5133 43.0333 49.24 43.76C49.9667 44.4867 50.375 45.4723 50.375 46.5ZM62 34.875C62 35.9027 61.5917 36.8883 60.865 37.615C60.1383 38.3417 59.1527 38.75 58.125 38.75C57.0973 38.75 56.1117 38.3417 55.385 37.615C54.6583 36.8883 54.25 35.9027 54.25 34.875C54.25 33.8473 54.6583 32.8617 55.385 32.135C56.1117 31.4083 57.0973 31 58.125 31C59.1527 31 60.1383 31.4083 60.865 32.135C61.5917 32.8617 62 33.8473 62 34.875ZM62 46.5C62 47.5277 61.5917 48.5133 60.865 49.24C60.1383 49.9667 59.1527 50.375 58.125 50.375C57.0973 50.375 56.1117 49.9667 55.385 49.24C54.6583 48.5133 54.25 47.5277 54.25 46.5C54.25 45.4723 54.6583 44.4867 55.385 43.76C56.1117 43.0333 57.0973 42.625 58.125 42.625C59.1527 42.625 60.1383 43.0333 60.865 43.76C61.5917 44.4867 62 45.4723 62 46.5ZM73.625 34.875C73.625 35.9027 73.2168 36.8883 72.49 37.615C71.7633 38.3417 70.7777 38.75 69.75 38.75C68.7223 38.75 67.7367 38.3417 67.01 37.615C66.2833 36.8883 65.875 35.9027 65.875 34.875C65.875 33.8473 66.2833 32.8617 67.01 32.135C67.7367 31.4083 68.7223 31 69.75 31C70.7777 31 71.7633 31.4083 72.49 32.135C73.2168 32.8617 73.625 33.8473 73.625 34.875ZM73.625 46.5C73.625 47.5277 73.2168 48.5133 72.49 49.24C71.7633 49.9667 70.7777 50.375 69.75 50.375C68.7223 50.375 67.7367 49.9667 67.01 49.24C66.2833 48.5133 65.875 47.5277 65.875 46.5C65.875 45.4723 66.2833 44.4867 67.01 43.76C67.7367 43.0333 68.7223 42.625 69.75 42.625C70.7777 42.625 71.7633 43.0333 72.49 43.76C73.2168 44.4867 73.625 45.4723 73.625 46.5Z" fill="#B2B2B2"/>
<path fill-rule="evenodd" clip-rule="evenodd" d="M30.7869 16.4688H62.2131C67.5103 16.4688 71.7844 16.4688 75.144 16.9221C78.6315 17.3871 81.5688 18.3946 83.9015 20.7235C86.2343 23.0563 87.234 25.9935 87.7068 29.481C88.1563 32.8406 88.1562 37.1148 88.1562 42.4119V50.5881C88.1562 55.8853 88.1563 60.1594 87.7068 63.519C87.234 67.0065 86.2343 69.9438 83.9015 72.2765C81.5688 74.6093 78.6315 75.609 75.144 76.0818C71.7844 76.5313 67.5103 76.5313 62.2131 76.5313H30.7869C25.4898 76.5313 21.2156 76.5313 17.856 76.0818C14.3685 75.609 11.4313 74.6093 9.0985 72.2765C6.76575 69.9438 5.766 67.0065 5.29712 63.519C4.84375 60.1594 4.84375 55.8853 4.84375 50.5881V42.4119C4.84375 37.1148 4.84375 32.8406 5.29712 29.481C5.76212 25.9935 6.76963 23.0563 9.0985 20.7235C11.4313 18.3908 14.3685 17.391 17.856 16.9221C21.2156 16.4688 25.4898 16.4688 30.7869 16.4688ZM18.631 22.6804C15.7868 23.064 14.2832 23.7654 13.2099 24.8349C12.1365 25.9083 11.439 27.4118 11.0554 30.2599C10.664 33.1816 10.6562 37.0644 10.6562 42.625V50.375C10.6562 55.9356 10.664 59.8184 11.0554 62.744C11.439 65.5883 12.1404 67.0918 13.2099 68.1651C14.2832 69.2385 15.7868 69.936 18.6349 70.3196C21.5566 70.711 25.4394 70.7188 31 70.7188H62C67.5606 70.7188 71.4395 70.711 74.369 70.3196C77.2132 69.936 78.7167 69.2346 79.7901 68.1651C80.8635 67.0918 81.561 65.5883 81.9446 62.7401C82.336 59.8184 82.3438 55.9356 82.3438 50.375V42.625C82.3438 37.0644 82.336 33.1816 81.9446 30.256C81.561 27.4118 80.8596 25.9083 79.7901 24.8349C78.7167 23.7615 77.2132 23.064 74.3651 22.6804C71.4395 22.289 67.5606 22.2813 62 22.2813H31C25.4394 22.2813 21.5566 22.289 18.631 22.6804ZM24.2188 62C24.2188 61.2292 24.5249 60.49 25.07 59.945C25.615 59.4 26.3542 59.0938 27.125 59.0938H65.875C66.6458 59.0938 67.385 59.4 67.93 59.945C68.4751 60.49 68.7812 61.2292 68.7812 62C68.7812 62.7708 68.4751 63.51 67.93 64.055C67.385 64.6001 66.6458 64.9063 65.875 64.9063H27.125C26.3542 64.9063 25.615 64.6001 25.07 64.055C24.5249 63.51 24.2188 62.7708 24.2188 62Z" fill="#B2B2B2"/>
<path d="M19 87.75V72.875C19 72.1788 19.2766 71.5111 19.7688 71.0188C20.2611 70.5266 20.9288 70.25 21.625 70.25C22.3212 70.25 22.9889 70.5266 23.4812 71.0188C23.9734 71.5111 24.25 72.1788 24.25 72.875V86M24.25 85.125V81.625C24.25 80.9288 24.5266 80.2611 25.0188 79.7688C25.5111 79.2766 26.1788 79 26.875 79C27.5712 79 28.2389 79.2766 28.7312 79.7688C29.2234 80.2611 29.5 80.9288 29.5 81.625V86M29.5 83.375C29.5 82.6788 29.7766 82.0111 30.2688 81.5188C30.7611 81.0266 31.4288 80.75 32.125 80.75C32.8212 80.75 33.4889 81.0266 33.9812 81.5188C34.4734 82.0111 34.75 82.6788 34.75 83.375V86" stroke="#E2E2E2" stroke-width="2" stroke-linecap="round" stroke-linejoin="round"/>
<path d="M34.75 85.125C34.75 84.4288 35.0266 83.7611 35.5188 83.2688C36.0111 82.7766 36.6788 82.5 37.375 82.5C38.0712 82.5 38.7389 82.7766 39.2312 83.2688C39.7234 83.7611 40 84.4288 40 85.125V93C40 95.7848 38.8938 98.4555 36.9246 100.425C34.9555 102.394 32.2848 103.5 29.5 103.5H26H26.364C24.6251 103.5 22.9133 103.069 21.3824 102.244C19.8515 101.419 18.5494 100.227 17.593 98.775L17.25 98.25C16.704 97.4123 14.7872 94.071 11.4995 88.226C11.1643 87.6302 11.0747 86.9271 11.2499 86.2663C11.4251 85.6054 11.8512 85.039 12.4375 84.6875C13.0623 84.3137 13.7939 84.1589 14.5166 84.2476C15.2393 84.3364 15.9117 84.6636 16.4275 85.1775L19 87.75M13.75 70.25L12 68.5M12 77.25H10.25M29.5 70.25L31.25 68.5M31.25 75.5H33" stroke="#E2E2E2" stroke-width="2" stroke-linecap="round" stroke-linejoin="round"/>
</svg>
