<svg width="68" height="68" viewBox="0 0 68 68" fill="none" xmlns="http://www.w3.org/2000/svg">
<path d="M61.5909 45.7016C61.6053 46.3211 61.4162 46.9282 61.0525 47.43C60.6936 47.9415 60.1756 48.32 59.5792 48.5066L54.7342 50.1216C53.2405 50.6144 51.8823 51.4487 50.7675 52.5583C49.6521 53.6684 48.8168 55.0281 48.3309 56.525L46.6309 61.3416C46.4538 61.9198 46.0964 62.4262 45.6109 62.7866C45.0943 63.1418 44.4811 63.3297 43.8542 63.325C43.2256 63.3518 42.606 63.1687 42.093 62.8045C41.5799 62.4402 41.2028 61.9156 41.0209 61.3133L39.4059 56.4683C38.9199 54.9715 38.0847 53.6118 36.9692 52.5016C35.8439 51.3988 34.4896 50.5573 33.0025 50.0366L28.1575 48.45C27.5847 48.2474 27.0828 47.8833 26.7125 47.4016C26.3373 46.8917 26.1294 46.278 26.1175 45.645C26.0907 45.0164 26.2738 44.3967 26.638 43.8837C27.0023 43.3707 27.5269 42.9935 28.1292 42.8116L33.0025 41.1966C34.5139 40.7083 35.8877 39.8679 37.0108 38.7448C38.1338 37.6217 38.9742 36.248 39.4625 34.7366L41.0775 29.9483C41.2427 29.3591 41.5942 28.8392 42.0793 28.4664C42.5645 28.0936 43.1574 27.8879 43.7692 27.88C44.3784 27.88 44.9762 28.0471 45.4975 28.3616C46.0132 28.7158 46.4099 29.2201 46.6309 29.8066L48.2742 34.7366C48.7626 36.248 49.6029 37.6217 50.726 38.7448C51.8491 39.8679 53.2229 40.7083 54.7342 41.1966L59.5509 42.8966C60.1369 43.0887 60.6442 43.4667 60.9959 43.9733C61.3797 44.4679 61.5889 45.0756 61.5909 45.7016ZM33.2604 27.6816C33.256 28.2371 33.0885 28.779 32.7787 29.24C32.4438 29.6961 31.98 30.0415 31.447 30.2316L27.877 31.4216C26.8769 31.7673 25.9702 32.3283 25.2137 33.065C24.4727 33.8179 23.911 34.7283 23.5704 35.7283L22.352 39.2416C22.1813 39.7847 21.8318 40.2541 21.3604 40.5733C20.8946 40.8985 20.3418 41.0762 19.7737 41.0833C19.1929 41.0736 18.6291 40.8857 18.1587 40.545C17.7131 40.206 17.3779 39.7426 17.1954 39.2133L16.0337 35.6716C15.6928 34.68 15.1309 33.779 14.3904 33.0366C13.6632 32.2772 12.7573 31.7122 11.7554 31.3933L8.21371 30.2033C7.66416 30.0303 7.18644 29.682 6.85371 29.2116C6.62818 28.8584 6.48382 28.4596 6.43102 28.0438C6.37823 27.6281 6.41831 27.2058 6.5484 26.8074C6.67848 26.409 6.89532 26.0445 7.18329 25.74C7.47126 25.4355 7.82319 25.1987 8.21371 25.0466L11.7554 23.885C12.7575 23.5351 13.6678 22.9635 14.4184 22.213C15.1689 21.4624 15.7405 20.5521 16.0904 19.55L17.252 16.065C17.419 15.5427 17.734 15.0801 18.1587 14.7333C18.61 14.3932 19.1527 14.1959 19.717 14.1666C20.2888 14.1513 20.8518 14.3093 21.332 14.62C21.8047 14.939 22.1701 15.3933 22.3804 15.9233L23.5704 19.55C23.9203 20.5521 24.4918 21.4624 25.2424 22.213C25.993 22.9635 26.9032 23.5351 27.9054 23.885L31.447 25.1033C31.9767 25.2853 32.4338 25.633 32.7504 26.095C33.0857 26.5557 33.2645 27.1118 33.2604 27.6816ZM49.6625 12.495C49.6369 13.0116 49.4703 13.5113 49.1809 13.94C48.886 14.344 48.4687 14.6421 47.9909 14.79L46.2342 15.385C45.893 15.5027 45.583 15.6966 45.3277 15.9518C45.0725 16.2071 44.8786 16.5171 44.7609 16.8583L44.1375 18.6433C43.9666 19.078 43.683 19.4594 43.3159 19.7483C42.8982 20.0829 42.3777 20.2631 41.8425 20.2583C41.3524 20.2301 40.8762 20.0843 40.4542 19.8333C40.0332 19.5187 39.7172 19.0841 39.5475 18.5866L38.9525 16.83C38.8477 16.4827 38.6521 16.1697 38.3859 15.9233C38.1361 15.6612 37.8243 15.4663 37.4792 15.3566L35.7225 14.79C35.2551 14.6077 34.8444 14.3046 34.5325 13.9116C34.2353 13.4886 34.0768 12.9837 34.0792 12.4666C34.0957 11.9484 34.2631 11.4461 34.5609 11.0216C34.8637 10.6257 35.2782 10.3297 35.7509 10.1716L37.4792 9.60497C37.8278 9.48509 38.1466 9.29186 38.4142 9.0383C38.6658 8.76923 38.8588 8.45084 38.9809 8.1033L39.5759 6.34664C39.7459 5.90747 40.015 5.5193 40.3692 5.2133C40.7757 4.91329 41.255 4.72742 41.7575 4.67497C42.2923 4.67191 42.8155 4.82987 43.2592 5.1283C43.6586 5.42878 43.9714 5.82956 44.1659 6.28997L44.7609 8.1033C44.8832 8.45073 45.0762 8.76908 45.3275 9.0383C45.5911 9.28302 45.8988 9.47533 46.2342 9.60497L48.0192 10.2C48.4731 10.3786 48.8733 10.6714 49.1809 11.05C49.49 11.4687 49.6586 11.9745 49.6625 12.495Z" fill="#E4E4E4"/>
</svg>
